<svg xmlns="http://www.w3.org/2000/svg" xmlns:xlink="http://www.w3.org/1999/xlink" width="500" zoomAndPan="magnify" viewBox="0 0 375 374.999991" height="500" preserveAspectRatio="xMidYMid meet" version="1.2"><defs/><g id="df1c66fa32"><path style=" stroke:none;fill-rule:nonzero;fill:#3451b2;fill-opacity:1;" d="M 279.425781 32.023438 C 308.246094 45.488281 334.542969 66.527344 346.113281 93.875 C 357.472656 121.011719 354.109375 154.460938 352.847656 186.859375 C 351.375 219.46875 352.003906 251.234375 338.121094 274.375 C 324.234375 297.519531 296.046875 312.035156 268.695312 326.550781 C 241.136719 341.277344 214.417969 355.792969 187.28125 356.421875 C 160.144531 357.265625 132.582031 344.222656 106.917969 328.652344 C 81.253906 312.875 57.480469 294.78125 39.597656 270.800781 C 21.714844 247.027344 9.515625 217.363281 8.253906 186.859375 C 6.988281 156.566406 16.457031 125.429688 30.761719 95.136719 C 44.855469 64.84375 63.792969 35.390625 90.71875 20.875 C 117.648438 6.148438 152.78125 6.359375 186.019531 9.304688 C 219.046875 12.460938 250.605469 18.558594 279.425781 32.023438 Z M 279.425781 32.023438 "/><path style=" stroke:none;fill-rule:nonzero;fill:#2d1238;fill-opacity:1;" d="M 341.179688 291.609375 C 369.589844 251.132812 374.511719 192.421875 353.03125 139.390625 C 347.457031 125.15625 341.9375 110.871094 338.367188 96.316406 C 339.070312 100.265625 339.394531 102.214844 340.097656 106.164062 C 347.238281 152.59375 332.574219 207.894531 302.542969 250.699219 C 253.84375 320.125 174.1875 340.203125 114.015625 297.992188 C 53.84375 255.785156 45.617188 174.023438 94.316406 104.648438 C 124.351562 61.847656 171.375 29.214844 217.476562 20.125 C 221.375 19.421875 223.375 19.097656 227.273438 18.394531 C 213.148438 18.828125 199.027344 19.3125 181.816406 19.261719 C 122.292969 15.527344 68.777344 40.09375 40.367188 80.625 C -0.214844 138.46875 19.859375 218.125 87.066406 277.324219 L 59.523438 282.191406 C 51.625 283.546875 46.753906 290.527344 48.160156 298.371094 C 48.863281 302.324219 51.515625 305.894531 53.789062 307.515625 C 56.113281 309.140625 60.390625 310.4375 64.339844 309.734375 L 89.933594 305.246094 L 76.949219 323.75 C 72.078125 330.675781 73.484375 338.578125 80.410156 343.449219 C 87.335938 348.316406 95.238281 346.910156 100.109375 339.984375 L 113.09375 321.476562 L 117.585938 347.074219 C 118.234375 351.023438 120.886719 354.59375 123.214844 356.21875 C 125.542969 357.84375 129.816406 359.140625 133.765625 358.4375 C 141.613281 357.03125 146.484375 350.105469 145.128906 342.257812 L 140.3125 314.660156 C 219.644531 356.542969 300.59375 349.453125 341.179688 291.609375 Z M 220.402344 193.070312 C 247.1875 154.921875 268.992188 111.523438 278.734375 80.40625 C 281.765625 68.71875 285.929688 57.789062 289.773438 44.964844 C 280.953125 52.59375 270.996094 59.410156 260.226562 67.421875 C 235.117188 86.035156 201.730469 121.261719 174.132812 160.601562 C 126.246094 228.890625 122.132812 269.152344 129.113281 274.023438 C 136.039062 278.890625 172.511719 261.359375 220.402344 193.070312 Z M 278.246094 233.652344 C 304.222656 196.640625 317.097656 148.75 311.363281 110.167969 C 309.632812 100.320312 309.902344 90.148438 308.171875 80.296875 C 307.683594 83.4375 306.0625 85.710938 305.628906 88.847656 C 296.210938 121.964844 271.96875 168.828125 243.5625 209.304688 C 216.773438 247.507812 191.015625 274.347656 168.34375 289.445312 C 206.167969 297.019531 248.214844 276.457031 278.246094 233.652344 Z M 100.433594 243.554688 C 106.925781 217.042969 123.375 183.707031 150.164062 145.558594 C 178.570312 105.082031 214.394531 66.285156 242.316406 46.207031 C 245.074219 44.691406 246.699219 42.367188 249.511719 40.851562 C 240.800781 43.394531 230.140625 46.316406 220.347656 48.046875 C 182.089844 55.730469 142.261719 83.003906 116.289062 120.070312 C 86.253906 162.875 81.222656 209.410156 100.433594 243.554688 Z M 100.433594 243.554688 "/><g style="fill:#f1d2ff;fill-opacity:1;"><g transform="translate(15.405469, 178.945272)"><path style="stroke:none" d="M 35.859375 -18.5 L 35.859375 -13 C 35.859375 -9.914062 35.109375 -7.335938 33.609375 -5.265625 C 32.109375 -3.191406 30.144531 -1.71875 27.71875 -0.84375 C 25.289062 0.0195312 22.425781 0.453125 19.125 0.453125 C 15.820312 0.453125 12.957031 0.0195312 10.53125 -0.84375 C 8.101562 -1.71875 6.140625 -3.191406 4.640625 -5.265625 C 3.140625 -7.335938 2.390625 -9.945312 2.390625 -13.09375 L 2.390625 -18.40625 C 2.390625 -22.9375 3.941406 -26.328125 7.046875 -28.578125 C 10.148438 -30.828125 14.175781 -31.953125 19.125 -31.953125 C 24.070312 -31.953125 28.097656 -30.828125 31.203125 -28.578125 C 34.304688 -26.328125 35.859375 -22.96875 35.859375 -18.5 Z M 14.53125 -19.34375 L 14.53125 -12.15625 C 14.53125 -10.925781 14.941406 -9.976562 15.765625 -9.3125 C 16.597656 -8.65625 17.71875 -8.328125 19.125 -8.328125 C 20.53125 -8.328125 21.644531 -8.660156 22.46875 -9.328125 C 23.300781 -10.003906 23.71875 -10.957031 23.71875 -12.1875 L 23.71875 -19.3125 C 23.71875 -20.539062 23.300781 -21.488281 22.46875 -22.15625 C 21.644531 -22.832031 20.53125 -23.171875 19.125 -23.171875 C 17.71875 -23.171875 16.597656 -22.835938 15.765625 -22.171875 C 14.941406 -21.515625 14.53125 -20.570312 14.53125 -19.34375 Z M 14.53125 -19.34375 "/></g></g><g style="fill:#f1d2ff;fill-opacity:1;"><g transform="translate(53.645556, 178.945272)"><path style="stroke:none" d="M 24.84375 -31.5 L 33.203125 -31.5 C 33.535156 -31.5 33.820312 -31.378906 34.0625 -31.140625 C 34.300781 -30.898438 34.421875 -30.613281 34.421875 -30.28125 L 34.421875 -1.21875 C 34.421875 -0.882812 34.300781 -0.597656 34.0625 -0.359375 C 33.820312 -0.117188 33.535156 0 33.203125 0 L 25.96875 0 C 25.25 0 24.648438 -0.3125 24.171875 -0.9375 L 14.359375 -13.453125 L 14.359375 -1.21875 C 14.359375 -0.882812 14.238281 -0.597656 14 -0.359375 C 13.757812 -0.117188 13.472656 0 13.140625 0 L 4.765625 0 C 4.441406 0 4.160156 -0.117188 3.921875 -0.359375 C 3.679688 -0.597656 3.5625 -0.882812 3.5625 -1.21875 L 3.5625 -30.28125 C 3.5625 -30.613281 3.679688 -30.898438 3.921875 -31.140625 C 4.160156 -31.378906 4.441406 -31.5 4.765625 -31.5 L 12.0625 -31.5 C 12.78125 -31.5 13.363281 -31.195312 13.8125 -30.59375 L 23.625 -17.0625 L 23.625 -30.28125 C 23.625 -30.613281 23.742188 -30.898438 23.984375 -31.140625 C 24.222656 -31.378906 24.507812 -31.5 24.84375 -31.5 Z M 24.84375 -31.5 "/></g></g><g style="fill:#f1d2ff;fill-opacity:1;"><g transform="translate(91.885643, 178.945272)"><path style="stroke:none" d="M 33.390625 -22.28125 L 25.25 -22.28125 L 25.25 -9.21875 L 33.390625 -9.21875 C 33.722656 -9.21875 34.007812 -9.097656 34.25 -8.859375 C 34.488281 -8.617188 34.609375 -8.335938 34.609375 -8.015625 L 34.609375 -1.21875 C 34.609375 -0.882812 34.488281 -0.597656 34.25 -0.359375 C 34.007812 -0.117188 33.722656 0 33.390625 0 L 4.859375 0 C 4.523438 0 4.238281 -0.117188 4 -0.359375 C 3.757812 -0.597656 3.640625 -0.882812 3.640625 -1.21875 L 3.640625 -8.015625 C 3.640625 -8.335938 3.757812 -8.617188 4 -8.859375 C 4.238281 -9.097656 4.523438 -9.21875 4.859375 -9.21875 L 13.09375 -9.21875 L 13.09375 -22.28125 L 4.859375 -22.28125 C 4.523438 -22.28125 4.238281 -22.398438 4 -22.640625 C 3.757812 -22.878906 3.640625 -23.160156 3.640625 -23.484375 L 3.640625 -30.28125 C 3.640625 -30.613281 3.757812 -30.898438 4 -31.140625 C 4.238281 -31.378906 4.523438 -31.5 4.859375 -31.5 L 33.390625 -31.5 C 33.722656 -31.5 34.007812 -31.378906 34.25 -31.140625 C 34.488281 -30.898438 34.609375 -30.613281 34.609375 -30.28125 L 34.609375 -23.484375 C 34.609375 -23.160156 34.488281 -22.878906 34.25 -22.640625 C 34.007812 -22.398438 33.722656 -22.28125 33.390625 -22.28125 Z M 33.390625 -22.28125 "/></g></g><g style="fill:#f1d2ff;fill-opacity:1;"><g transform="translate(130.12573, 178.945272)"><path style="stroke:none" d="M 35.859375 -18.5 L 35.859375 -13 C 35.859375 -9.914062 35.109375 -7.335938 33.609375 -5.265625 C 32.109375 -3.191406 30.144531 -1.71875 27.71875 -0.84375 C 25.289062 0.0195312 22.425781 0.453125 19.125 0.453125 C 15.820312 0.453125 12.957031 0.0195312 10.53125 -0.84375 C 8.101562 -1.71875 6.140625 -3.191406 4.640625 -5.265625 C 3.140625 -7.335938 2.390625 -9.945312 2.390625 -13.09375 L 2.390625 -18.40625 C 2.390625 -22.9375 3.941406 -26.328125 7.046875 -28.578125 C 10.148438 -30.828125 14.175781 -31.953125 19.125 -31.953125 C 24.070312 -31.953125 28.097656 -30.828125 31.203125 -28.578125 C 34.304688 -26.328125 35.859375 -22.96875 35.859375 -18.5 Z M 14.53125 -19.34375 L 14.53125 -12.15625 C 14.53125 -10.925781 14.941406 -9.976562 15.765625 -9.3125 C 16.597656 -8.65625 17.71875 -8.328125 19.125 -8.328125 C 20.53125 -8.328125 21.644531 -8.660156 22.46875 -9.328125 C 23.300781 -10.003906 23.71875 -10.957031 23.71875 -12.1875 L 23.71875 -19.3125 C 23.71875 -20.539062 23.300781 -21.488281 22.46875 -22.15625 C 21.644531 -22.832031 20.53125 -23.171875 19.125 -23.171875 C 17.71875 -23.171875 16.597656 -22.835938 15.765625 -22.171875 C 14.941406 -21.515625 14.53125 -20.570312 14.53125 -19.34375 Z M 14.53125 -19.34375 "/></g></g><g style="fill:#f1d2ff;fill-opacity:1;"><g transform="translate(168.365817, 178.945272)"><path style="stroke:none" d="M 35.859375 -18.5 L 35.859375 -13 C 35.859375 -9.914062 35.109375 -7.335938 33.609375 -5.265625 C 32.109375 -3.191406 30.144531 -1.71875 27.71875 -0.84375 C 25.289062 0.0195312 22.425781 0.453125 19.125 0.453125 C 15.820312 0.453125 12.957031 0.0195312 10.53125 -0.84375 C 8.101562 -1.71875 6.140625 -3.191406 4.640625 -5.265625 C 3.140625 -7.335938 2.390625 -9.945312 2.390625 -13.09375 L 2.390625 -18.40625 C 2.390625 -22.9375 3.941406 -26.328125 7.046875 -28.578125 C 10.148438 -30.828125 14.175781 -31.953125 19.125 -31.953125 C 24.070312 -31.953125 28.097656 -30.828125 31.203125 -28.578125 C 34.304688 -26.328125 35.859375 -22.96875 35.859375 -18.5 Z M 14.53125 -19.34375 L 14.53125 -12.15625 C 14.53125 -10.925781 14.941406 -9.976562 15.765625 -9.3125 C 16.597656 -8.65625 17.71875 -8.328125 19.125 -8.328125 C 20.53125 -8.328125 21.644531 -8.660156 22.46875 -9.328125 C 23.300781 -10.003906 23.71875 -10.957031 23.71875 -12.1875 L 23.71875 -19.3125 C 23.71875 -20.539062 23.300781 -21.488281 22.46875 -22.15625 C 21.644531 -22.832031 20.53125 -23.171875 19.125 -23.171875 C 17.71875 -23.171875 16.597656 -22.835938 15.765625 -22.171875 C 14.941406 -21.515625 14.53125 -20.570312 14.53125 -19.34375 Z M 14.53125 -19.34375 "/></g></g><g style="fill:#f1d2ff;fill-opacity:1;"><g transform="translate(206.605904, 178.945272)"><path style="stroke:none" d="M 24.84375 -31.5 L 33.203125 -31.5 C 33.535156 -31.5 33.820312 -31.378906 34.0625 -31.140625 C 34.300781 -30.898438 34.421875 -30.613281 34.421875 -30.28125 L 34.421875 -1.21875 C 34.421875 -0.882812 34.300781 -0.597656 34.0625 -0.359375 C 33.820312 -0.117188 33.535156 0 33.203125 0 L 25.96875 0 C 25.25 0 24.648438 -0.3125 24.171875 -0.9375 L 14.359375 -13.453125 L 14.359375 -1.21875 C 14.359375 -0.882812 14.238281 -0.597656 14 -0.359375 C 13.757812 -0.117188 13.472656 0 13.140625 0 L 4.765625 0 C 4.441406 0 4.160156 -0.117188 3.921875 -0.359375 C 3.679688 -0.597656 3.5625 -0.882812 3.5625 -1.21875 L 3.5625 -30.28125 C 3.5625 -30.613281 3.679688 -30.898438 3.921875 -31.140625 C 4.160156 -31.378906 4.441406 -31.5 4.765625 -31.5 L 12.0625 -31.5 C 12.78125 -31.5 13.363281 -31.195312 13.8125 -30.59375 L 23.625 -17.0625 L 23.625 -30.28125 C 23.625 -30.613281 23.742188 -30.898438 23.984375 -31.140625 C 24.222656 -31.378906 24.507812 -31.5 24.84375 -31.5 Z M 24.84375 -31.5 "/></g></g><g style="fill:#f1d2ff;fill-opacity:1;"><g transform="translate(244.845991, 178.945272)"><path style="stroke:none" d="M 14.40625 -10.703125 L 23.84375 -10.703125 C 24.175781 -10.703125 24.460938 -10.582031 24.703125 -10.34375 C 24.941406 -10.101562 25.0625 -9.820312 25.0625 -9.5 L 25.0625 -1.21875 C 25.0625 -0.882812 24.941406 -0.597656 24.703125 -0.359375 C 24.460938 -0.117188 24.175781 0 23.84375 0 L 14.40625 0 C 14.070312 0 13.785156 -0.117188 13.546875 -0.359375 C 13.304688 -0.597656 13.1875 -0.882812 13.1875 -1.21875 L 13.1875 -9.5 C 13.1875 -9.820312 13.304688 -10.101562 13.546875 -10.34375 C 13.785156 -10.582031 14.070312 -10.703125 14.40625 -10.703125 Z M 14.40625 -10.703125 "/></g></g><g style="fill:#f1d2ff;fill-opacity:1;"><g transform="translate(283.086078, 178.945272)"><path style="stroke:none" d="M 34.5625 -30.28125 L 34.5625 -13.09375 C 34.5625 -8.53125 33.0625 -5.128906 30.0625 -2.890625 C 27.0625 -0.660156 23.054688 0.453125 18.046875 0.453125 C 15.316406 0.453125 12.84375 0.0976562 10.625 -0.609375 C 8.40625 -1.316406 6.632812 -2.238281 5.3125 -3.375 C 2.582031 -5.75 1.21875 -8.300781 1.21875 -11.03125 C 1.21875 -11.300781 1.3125 -11.53125 1.5 -11.71875 C 1.695312 -11.914062 1.929688 -12.015625 2.203125 -12.015625 L 12.375 -12.015625 C 12.914062 -12.015625 13.289062 -11.6875 13.5 -11.03125 C 14.070312 -9.226562 15.507812 -8.328125 17.8125 -8.328125 C 19.226562 -8.328125 20.347656 -8.65625 21.171875 -9.3125 C 21.992188 -9.976562 22.40625 -10.925781 22.40625 -12.15625 L 22.40625 -22.28125 L 5.984375 -22.28125 C 5.648438 -22.28125 5.363281 -22.398438 5.125 -22.640625 C 4.882812 -22.878906 4.765625 -23.160156 4.765625 -23.484375 L 4.765625 -30.28125 C 4.765625 -30.613281 4.882812 -30.898438 5.125 -31.140625 C 5.363281 -31.378906 5.648438 -31.5 5.984375 -31.5 L 33.34375 -31.5 C 33.675781 -31.5 33.960938 -31.378906 34.203125 -31.140625 C 34.441406 -30.898438 34.5625 -30.613281 34.5625 -30.28125 Z M 34.5625 -30.28125 "/></g></g><g style="fill:#f1d2ff;fill-opacity:1;"><g transform="translate(321.326165, 178.945272)"><path style="stroke:none" d="M 21.59375 -20.0625 C 26.519531 -19.5 30.023438 -18.441406 32.109375 -16.890625 C 34.191406 -15.347656 35.234375 -13.03125 35.234375 -9.9375 C 35.234375 -6.851562 33.71875 -4.347656 30.6875 -2.421875 C 27.65625 -0.503906 23.632812 0.453125 18.625 0.453125 C 13.613281 0.453125 9.722656 -0.46875 6.953125 -2.3125 C 4.179688 -4.15625 2.796875 -6.429688 2.796875 -9.140625 C 2.796875 -9.796875 3.140625 -10.125 3.828125 -10.125 L 13.046875 -10.125 C 13.679688 -10.125 14.191406 -9.929688 14.578125 -9.546875 C 15.421875 -8.734375 16.875 -8.328125 18.9375 -8.328125 C 21.789062 -8.328125 23.21875 -8.757812 23.21875 -9.625 C 23.21875 -10.164062 22.765625 -10.59375 21.859375 -10.90625 C 20.960938 -11.226562 19.179688 -11.535156 16.515625 -11.828125 C 8.023438 -12.847656 3.78125 -16.101562 3.78125 -21.59375 C 3.78125 -24.6875 5.144531 -27.1875 7.875 -29.09375 C 10.601562 -31 14.253906 -31.953125 18.828125 -31.953125 C 23.398438 -31.953125 27.097656 -30.953125 29.921875 -28.953125 C 32.742188 -26.960938 34.15625 -24.859375 34.15625 -22.640625 C 34.15625 -22.335938 34.054688 -22.09375 33.859375 -21.90625 C 33.660156 -21.726562 33.398438 -21.640625 33.078125 -21.640625 L 23.40625 -21.640625 C 22.863281 -21.640625 22.394531 -21.820312 22 -22.1875 C 21.28125 -22.84375 20.203125 -23.171875 18.765625 -23.171875 C 16.753906 -23.171875 15.75 -22.753906 15.75 -21.921875 C 15.75 -21.460938 16.140625 -21.101562 16.921875 -20.84375 C 17.703125 -20.59375 19.257812 -20.332031 21.59375 -20.0625 Z M 21.59375 -20.0625 "/></g></g></g></svg>